<mxfile host="app.diagrams.net" modified="2023-10-23T01:25:31.910Z" agent="Mozilla/5.0 (Windows NT 10.0; Win64; x64) AppleWebKit/537.36 (KHTML, like Gecko) Chrome/118.0.0.0 Safari/537.36 Edg/118.0.2088.57" etag="WbQu98PhTvIPR2EfD3WV" version="22.0.6" type="device">
  <diagram name="Page-1" id="_-mM6pwPEkhyXoCmFPv5">
    <mxGraphModel dx="1466" dy="384" grid="1" gridSize="10" guides="1" tooltips="1" connect="1" arrows="1" fold="1" page="1" pageScale="1" pageWidth="850" pageHeight="1100" math="0" shadow="0">
      <root>
        <mxCell id="0" />
        <mxCell id="1" parent="0" />
        <mxCell id="ZLG5mcBngRfKmYNjKEoV-1" value="Digite un usuario y contraseña para iniciar sesión" style="rounded=0;whiteSpace=wrap;html=1;" vertex="1" parent="1">
          <mxGeometry x="180" y="280" width="120" height="60" as="geometry" />
        </mxCell>
        <mxCell id="ZLG5mcBngRfKmYNjKEoV-2" value="INICIO" style="ellipse;whiteSpace=wrap;html=1;" vertex="1" parent="1">
          <mxGeometry x="378" y="30" width="120" height="80" as="geometry" />
        </mxCell>
        <mxCell id="ZLG5mcBngRfKmYNjKEoV-3" value="¿Posee una cuenta?" style="rhombus;whiteSpace=wrap;html=1;" vertex="1" parent="1">
          <mxGeometry x="365.5" y="170" width="145" height="90" as="geometry" />
        </mxCell>
        <mxCell id="ZLG5mcBngRfKmYNjKEoV-4" value="Digite un usuario, contraseña, DUI, Correo para crear una cuenta" style="rounded=0;whiteSpace=wrap;html=1;" vertex="1" parent="1">
          <mxGeometry x="580" y="280" width="120" height="60" as="geometry" />
        </mxCell>
        <mxCell id="ZLG5mcBngRfKmYNjKEoV-5" value="" style="endArrow=classic;html=1;rounded=0;exitX=0.5;exitY=1;exitDx=0;exitDy=0;entryX=0.5;entryY=0;entryDx=0;entryDy=0;" edge="1" parent="1" source="ZLG5mcBngRfKmYNjKEoV-2" target="ZLG5mcBngRfKmYNjKEoV-3">
          <mxGeometry width="50" height="50" relative="1" as="geometry">
            <mxPoint x="400" y="320" as="sourcePoint" />
            <mxPoint x="450" y="270" as="targetPoint" />
          </mxGeometry>
        </mxCell>
        <mxCell id="ZLG5mcBngRfKmYNjKEoV-6" value="" style="endArrow=classic;html=1;exitX=0;exitY=0.5;exitDx=0;exitDy=0;entryX=0.5;entryY=0;entryDx=0;entryDy=0;strokeColor=default;rounded=0;edgeStyle=orthogonalEdgeStyle;" edge="1" parent="1" source="ZLG5mcBngRfKmYNjKEoV-3" target="ZLG5mcBngRfKmYNjKEoV-1">
          <mxGeometry width="50" height="50" relative="1" as="geometry">
            <mxPoint x="400" y="320" as="sourcePoint" />
            <mxPoint x="450" y="270" as="targetPoint" />
          </mxGeometry>
        </mxCell>
        <mxCell id="ZLG5mcBngRfKmYNjKEoV-7" value="" style="endArrow=classic;html=1;exitX=1;exitY=0.5;exitDx=0;exitDy=0;entryX=0.5;entryY=0;entryDx=0;entryDy=0;strokeColor=default;rounded=0;edgeStyle=orthogonalEdgeStyle;" edge="1" parent="1" source="ZLG5mcBngRfKmYNjKEoV-3" target="ZLG5mcBngRfKmYNjKEoV-4">
          <mxGeometry width="50" height="50" relative="1" as="geometry">
            <mxPoint x="363" y="225" as="sourcePoint" />
            <mxPoint x="230" y="290" as="targetPoint" />
          </mxGeometry>
        </mxCell>
        <mxCell id="ZLG5mcBngRfKmYNjKEoV-8" value="SI" style="text;html=1;align=center;verticalAlign=middle;resizable=0;points=[];autosize=1;strokeColor=none;fillColor=none;" vertex="1" parent="1">
          <mxGeometry x="240" y="190" width="30" height="30" as="geometry" />
        </mxCell>
        <mxCell id="ZLG5mcBngRfKmYNjKEoV-9" value="NO" style="text;html=1;align=center;verticalAlign=middle;resizable=0;points=[];autosize=1;strokeColor=none;fillColor=none;" vertex="1" parent="1">
          <mxGeometry x="605" y="190" width="40" height="30" as="geometry" />
        </mxCell>
        <mxCell id="ZLG5mcBngRfKmYNjKEoV-10" value="" style="endArrow=classic;html=1;rounded=0;exitX=0;exitY=0.5;exitDx=0;exitDy=0;entryX=1;entryY=0.5;entryDx=0;entryDy=0;" edge="1" parent="1" source="ZLG5mcBngRfKmYNjKEoV-4" target="ZLG5mcBngRfKmYNjKEoV-1">
          <mxGeometry width="50" height="50" relative="1" as="geometry">
            <mxPoint x="400" y="390" as="sourcePoint" />
            <mxPoint x="450" y="340" as="targetPoint" />
          </mxGeometry>
        </mxCell>
        <mxCell id="ZLG5mcBngRfKmYNjKEoV-19" style="edgeStyle=orthogonalEdgeStyle;rounded=0;orthogonalLoop=1;jettySize=auto;html=1;exitX=0;exitY=0.5;exitDx=0;exitDy=0;entryX=0.5;entryY=1;entryDx=0;entryDy=0;" edge="1" parent="1" source="ZLG5mcBngRfKmYNjKEoV-12" target="ZLG5mcBngRfKmYNjKEoV-17">
          <mxGeometry relative="1" as="geometry" />
        </mxCell>
        <mxCell id="ZLG5mcBngRfKmYNjKEoV-35" style="edgeStyle=orthogonalEdgeStyle;rounded=0;orthogonalLoop=1;jettySize=auto;html=1;exitX=1;exitY=0;exitDx=0;exitDy=0;entryX=0.5;entryY=1;entryDx=0;entryDy=0;" edge="1" parent="1" source="ZLG5mcBngRfKmYNjKEoV-12" target="ZLG5mcBngRfKmYNjKEoV-34">
          <mxGeometry relative="1" as="geometry">
            <mxPoint x="480.00000000000045" y="800" as="sourcePoint" />
            <mxPoint x="670" y="660" as="targetPoint" />
            <Array as="points">
              <mxPoint x="470" y="730" />
              <mxPoint x="670" y="730" />
              <mxPoint x="670" y="640" />
            </Array>
          </mxGeometry>
        </mxCell>
        <mxCell id="ZLG5mcBngRfKmYNjKEoV-40" style="edgeStyle=orthogonalEdgeStyle;rounded=0;orthogonalLoop=1;jettySize=auto;html=1;exitX=0.5;exitY=1;exitDx=0;exitDy=0;entryX=0.5;entryY=0;entryDx=0;entryDy=0;" edge="1" parent="1" source="ZLG5mcBngRfKmYNjKEoV-12" target="ZLG5mcBngRfKmYNjKEoV-39">
          <mxGeometry relative="1" as="geometry" />
        </mxCell>
        <mxCell id="ZLG5mcBngRfKmYNjKEoV-42" value="Cerrar Sesión" style="edgeLabel;html=1;align=center;verticalAlign=middle;resizable=0;points=[];" vertex="1" connectable="0" parent="ZLG5mcBngRfKmYNjKEoV-40">
          <mxGeometry x="-0.6519" y="1" relative="1" as="geometry">
            <mxPoint x="-1" y="52" as="offset" />
          </mxGeometry>
        </mxCell>
        <mxCell id="ZLG5mcBngRfKmYNjKEoV-12" value="¿Qué desea realizar" style="rhombus;whiteSpace=wrap;html=1;" vertex="1" parent="1">
          <mxGeometry x="374" y="780" width="128" height="80" as="geometry" />
        </mxCell>
        <mxCell id="ZLG5mcBngRfKmYNjKEoV-13" value="Visualización de página principal" style="rounded=0;whiteSpace=wrap;html=1;" vertex="1" parent="1">
          <mxGeometry x="378" y="430" width="120" height="60" as="geometry" />
        </mxCell>
        <mxCell id="ZLG5mcBngRfKmYNjKEoV-14" value="" style="endArrow=classic;html=1;rounded=0;exitX=0.5;exitY=1;exitDx=0;exitDy=0;entryX=0.5;entryY=0;entryDx=0;entryDy=0;edgeStyle=orthogonalEdgeStyle;" edge="1" parent="1" source="ZLG5mcBngRfKmYNjKEoV-1" target="ZLG5mcBngRfKmYNjKEoV-13">
          <mxGeometry width="50" height="50" relative="1" as="geometry">
            <mxPoint x="310" y="480" as="sourcePoint" />
            <mxPoint x="360" y="430" as="targetPoint" />
          </mxGeometry>
        </mxCell>
        <mxCell id="ZLG5mcBngRfKmYNjKEoV-15" value="Inicio Sesión" style="text;html=1;align=center;verticalAlign=middle;resizable=0;points=[];autosize=1;strokeColor=none;fillColor=none;" vertex="1" parent="1">
          <mxGeometry x="300" y="360" width="90" height="30" as="geometry" />
        </mxCell>
        <mxCell id="ZLG5mcBngRfKmYNjKEoV-16" value="" style="endArrow=classic;html=1;rounded=0;exitX=0.5;exitY=1;exitDx=0;exitDy=0;entryX=0.5;entryY=0;entryDx=0;entryDy=0;" edge="1" parent="1" source="ZLG5mcBngRfKmYNjKEoV-13" target="ZLG5mcBngRfKmYNjKEoV-12">
          <mxGeometry width="50" height="50" relative="1" as="geometry">
            <mxPoint x="430" y="550" as="sourcePoint" />
            <mxPoint x="480" y="500" as="targetPoint" />
          </mxGeometry>
        </mxCell>
        <mxCell id="ZLG5mcBngRfKmYNjKEoV-20" style="edgeStyle=orthogonalEdgeStyle;rounded=0;orthogonalLoop=1;jettySize=auto;html=1;exitX=1;exitY=0.5;exitDx=0;exitDy=0;entryX=0;entryY=0.5;entryDx=0;entryDy=0;" edge="1" parent="1" source="ZLG5mcBngRfKmYNjKEoV-17" target="ZLG5mcBngRfKmYNjKEoV-13">
          <mxGeometry relative="1" as="geometry" />
        </mxCell>
        <mxCell id="ZLG5mcBngRfKmYNjKEoV-17" value="Agregue Producto, Precio Unitario, Cantidad Vendida, Descripcion y Categoría para que esta se pueda agregar a la tabla" style="rounded=0;whiteSpace=wrap;html=1;" vertex="1" parent="1">
          <mxGeometry x="-10" y="405" width="170" height="110" as="geometry" />
        </mxCell>
        <mxCell id="ZLG5mcBngRfKmYNjKEoV-21" value="Agregar Productos" style="text;html=1;align=center;verticalAlign=middle;resizable=0;points=[];autosize=1;strokeColor=none;fillColor=none;" vertex="1" parent="1">
          <mxGeometry x="150" y="790" width="120" height="30" as="geometry" />
        </mxCell>
        <mxCell id="ZLG5mcBngRfKmYNjKEoV-26" style="edgeStyle=orthogonalEdgeStyle;rounded=0;orthogonalLoop=1;jettySize=auto;html=1;exitX=1;exitY=0.5;exitDx=0;exitDy=0;entryX=0.5;entryY=1;entryDx=0;entryDy=0;" edge="1" parent="1" target="ZLG5mcBngRfKmYNjKEoV-28" source="ZLG5mcBngRfKmYNjKEoV-12">
          <mxGeometry relative="1" as="geometry">
            <mxPoint x="924" y="600" as="sourcePoint" />
          </mxGeometry>
        </mxCell>
        <mxCell id="ZLG5mcBngRfKmYNjKEoV-27" style="edgeStyle=orthogonalEdgeStyle;rounded=0;orthogonalLoop=1;jettySize=auto;html=1;exitX=0;exitY=0.5;exitDx=0;exitDy=0;entryX=1;entryY=0.5;entryDx=0;entryDy=0;" edge="1" parent="1" source="ZLG5mcBngRfKmYNjKEoV-28" target="ZLG5mcBngRfKmYNjKEoV-13">
          <mxGeometry relative="1" as="geometry">
            <mxPoint x="928" y="470" as="targetPoint" />
          </mxGeometry>
        </mxCell>
        <mxCell id="ZLG5mcBngRfKmYNjKEoV-28" value="Escoga el producto ha eliminar de la tabla&amp;nbsp;" style="rounded=0;whiteSpace=wrap;html=1;" vertex="1" parent="1">
          <mxGeometry x="780" y="422.5" width="105" height="75" as="geometry" />
        </mxCell>
        <mxCell id="ZLG5mcBngRfKmYNjKEoV-29" value="Eliminar Productos" style="text;html=1;align=center;verticalAlign=middle;resizable=0;points=[];autosize=1;strokeColor=none;fillColor=none;" vertex="1" parent="1">
          <mxGeometry x="640" y="790" width="120" height="30" as="geometry" />
        </mxCell>
        <mxCell id="ZLG5mcBngRfKmYNjKEoV-33" value="Aceptar eliminación" style="text;html=1;align=center;verticalAlign=middle;resizable=0;points=[];autosize=1;strokeColor=none;fillColor=none;" vertex="1" parent="1">
          <mxGeometry x="580" y="430" width="130" height="30" as="geometry" />
        </mxCell>
        <mxCell id="ZLG5mcBngRfKmYNjKEoV-37" style="edgeStyle=orthogonalEdgeStyle;rounded=0;orthogonalLoop=1;jettySize=auto;html=1;exitX=0.5;exitY=0;exitDx=0;exitDy=0;entryX=0.75;entryY=1;entryDx=0;entryDy=0;" edge="1" parent="1" source="ZLG5mcBngRfKmYNjKEoV-34" target="ZLG5mcBngRfKmYNjKEoV-13">
          <mxGeometry relative="1" as="geometry" />
        </mxCell>
        <mxCell id="ZLG5mcBngRfKmYNjKEoV-34" value="Modifique los datos necesarios&amp;nbsp;" style="rounded=0;whiteSpace=wrap;html=1;" vertex="1" parent="1">
          <mxGeometry x="610" y="580" width="120" height="60" as="geometry" />
        </mxCell>
        <mxCell id="ZLG5mcBngRfKmYNjKEoV-36" value="Modificar Producto" style="text;html=1;align=center;verticalAlign=middle;resizable=0;points=[];autosize=1;strokeColor=none;fillColor=none;" vertex="1" parent="1">
          <mxGeometry x="498" y="708" width="120" height="30" as="geometry" />
        </mxCell>
        <mxCell id="ZLG5mcBngRfKmYNjKEoV-38" value="Aceptar modificación" style="text;html=1;align=center;verticalAlign=middle;resizable=0;points=[];autosize=1;strokeColor=none;fillColor=none;" vertex="1" parent="1">
          <mxGeometry x="510" y="510" width="130" height="30" as="geometry" />
        </mxCell>
        <mxCell id="ZLG5mcBngRfKmYNjKEoV-39" value="FIN" style="ellipse;whiteSpace=wrap;html=1;" vertex="1" parent="1">
          <mxGeometry x="378" y="1020" width="120" height="80" as="geometry" />
        </mxCell>
      </root>
    </mxGraphModel>
  </diagram>
</mxfile>
